<svg width="12" height="12" viewBox="0 0 12 12" fill="none" xmlns="http://www.w3.org/2000/svg">
<path fill-rule="evenodd" clip-rule="evenodd" d="M5.3974 0.655186C5.28155 0.605661 5.14855 0.617626 5.0434 0.687031C4.93827 0.756436 4.875 0.874011 4.875 1C4.875 2.05103 4.20298 2.83401 3.46528 3.69346C2.71112 4.57331 1.875 5.60265 1.875 7.25C1.875 9.5282 3.72182 11.375 6 11.375C8.27815 11.375 10.125 9.5282 10.125 7.25C10.125 6.70995 10.1186 5.6105 9.04285 4.26574C8.94485 4.14326 8.78095 4.0947 8.63205 4.14403C8.48325 4.19334 8.3808 4.33013 8.37525 4.48679C8.37525 4.48679 8.3647 4.60705 8.35615 4.66267C8.33865 4.77641 8.3075 4.9168 8.2548 5.0452C8.20075 5.1769 8.13635 5.2658 8.07045 5.3139C8.01875 5.35165 7.9403 5.3848 7.78985 5.35335C7.66115 5.32645 7.5962 5.27905 7.5546 5.2301C7.5073 5.1745 7.46435 5.0859 7.4331 4.93962C7.40165 4.79251 7.3873 4.61362 7.3788 4.39552C7.3757 4.31669 7.37335 4.22787 7.3708 4.13439C7.36695 3.98922 7.36275 3.83279 7.3552 3.68516C7.3293 3.17912 7.2595 2.59479 6.97915 2.0476C6.6927 1.48842 6.2032 0.999656 5.3974 0.655186ZM5.8736 5.46785C5.86355 5.35055 5.7989 5.24475 5.6991 5.18225C5.59935 5.1197 5.47595 5.1077 5.366 5.14975C4.88549 5.33365 4.51736 5.77565 4.27766 6.19865C4.03643 6.62435 3.875 7.11975 3.875 7.5C3.875 8.20105 4.09713 8.79615 4.48637 9.21995C4.8763 9.6445 5.4151 9.8756 6 9.8756C7.25585 9.8756 8.125 8.60715 8.125 7.2506C8.125 7.1276 8.0647 7.0124 7.9636 6.94235C7.8625 6.8723 7.7335 6.85625 7.61835 6.89945C7.2694 7.0303 7.00815 7.0417 6.81425 6.99985C6.62265 6.9585 6.4662 6.8587 6.3351 6.7129C6.0602 6.4072 5.9119 5.913 5.8736 5.46785Z" fill="white"/>
</svg>
